<?xml version="1.0" standalone="yes"?>
<svg width="231" height="201">
<path style="fill:#000000; stroke:none;" d="M0 0L0 201L231 201L231 0L0 0z"/>
<path style="fill:#565656; stroke:none;" d="M27 47L28 47L47 45C43.2656 42.8484 28.0417 42.1385 27 47M94 44L94 45L113 45L94 44z"/>
<path style="fill:#ededed; stroke:none;" d="M28 45L59 132C64.2871 132 75.9419 134.206 80.3009 130.972C85.407 127.185 87.8596 113.869 89.8333 108C96.5143 88.1332 109.911 65.839 112 45L94.6883 46.0278L87.2832 64L76.8873 94L69 112L47 45L28 45z"/>
<path style="fill:#949494; stroke:none;" d="M93.3333 45.6667L93.6667 46.3333L93.3333 45.6667z"/>
<path style="fill:#8d8d8d; stroke:none;" d="M112.333 45.6667L112.667 46.3333L112.333 45.6667z"/>
<path style="fill:#898989; stroke:none;" d="M47.3333 46.6667L47.6667 47.3333L47.3333 46.6667z"/>
<path style="fill:#5c5c5c; stroke:none;" d="M28.3333 47.6667L28.6667 48.3333L28.3333 47.6667z"/>
<path style="fill:#989898; stroke:none;" d="M92.3333 48.6667L92.6667 49.3333L92.3333 48.6667z"/>
<path style="fill:#9a9a9a; stroke:none;" d="M48.3333 49.6667L48.6667 50.3333L48.3333 49.6667z"/>
<path style="fill:#4c4c4c; stroke:none;" d="M29.3333 50.6667L29.6667 51.3333L29.3333 50.6667z"/>
<path style="fill:#535353; stroke:none;" d="M110.333 51.6667L110.667 52.3333L110.333 51.6667z"/>
<path style="fill:#a0a0a0; stroke:none;" d="M49.3333 52.6667L49.6667 53.3333L49.3333 52.6667z"/>
<path style="fill:#414141; stroke:none;" d="M30.3333 53.6667L30.6667 54.3333L30.3333 53.6667z"/>
<path style="fill:#a7a7a7; stroke:none;" d="M90.3333 54.6667L90.6667 55.3333L90.3333 54.6667z"/>
<path style="fill:#4c4c4c; stroke:none;" d="M109.333 54.6667L109.667 55.3333L109.333 54.6667z"/>
<path style="fill:#676767; stroke:none;" d="M31.3333 55.6667L31.6667 56.3333L31.3333 55.6667z"/>
<path style="fill:#9b9b9b; stroke:none;" d="M50.3333 55.6667L50.6667 56.3333L50.3333 55.6667z"/>
<path style="fill:#737373; stroke:none;" d="M89.3333 56.6667L89.6667 57.3333L89.3333 56.6667z"/>
<path style="fill:#535353; stroke:none;" d="M32.3333 58.6667L32.6667 59.3333L32.3333 58.6667z"/>
<path style="fill:#a5a5a5; stroke:none;" d="M51.3333 58.6667L51.6667 59.3333L51.3333 58.6667z"/>
<path style="fill:#5d5d5d; stroke:none;" d="M107.333 59.6667L107.667 60.3333L107.333 59.6667z"/>
<path style="fill:#484848; stroke:none;" d="M33.3333 61.6667L33.6667 62.3333L33.3333 61.6667z"/>
<path style="fill:#acacac; stroke:none;" d="M52.3333 61.6667L52.6667 62.3333L52.3333 61.6667z"/>
<path style="fill:#7f7f7f; stroke:none;" d="M87.3333 62.6667L87.6667 63.3333L87.3333 62.6667z"/>
<path style="fill:#565656; stroke:none;" d="M106.333 62.6667L106.667 63.3333L106.333 62.6667z"/>
<path style="fill:#3d3d3d; stroke:none;" d="M34.3333 64.6667L34.6667 65.3333L34.3333 64.6667z"/>
<path style="fill:#a7a7a7; stroke:none;" d="M53.3333 64.6667L53.6667 65.3333L53.3333 64.6667z"/>
<path style="fill:#919191; stroke:none;" d="M86.3333 65.6667L86.6667 66.3333L86.3333 65.6667z"/>
<path style="fill:#636363; stroke:none;" d="M35.3333 66.6667L35.6667 67.3333L35.3333 66.6667z"/>
<path style="fill:#6a6a6a; stroke:none;" d="M104.333 67.6667L104.667 68.3333L104.333 67.6667z"/>
<path style="fill:#8f8f8f; stroke:none;" d="M85.3333 68.6667L85.6667 69.3333L85.3333 68.6667z"/>
<path style="fill:#6a6a6a; stroke:none;" d="M103.333 70.6667L103.667 71.3333L103.333 70.6667z"/>
<path style="fill:#9a9a9a; stroke:none;" d="M84.3333 71.6667L84.6667 72.3333L84.3333 71.6667z"/>
<path style="fill:#3b3b3b; stroke:none;" d="M37.3333 72.6667L37.6667 73.3333L37.3333 72.6667z"/>
<path style="fill:#8c8c8c; stroke:none;" d="M56.3333 72.6667L56.6667 73.3333L56.3333 72.6667z"/>
<path style="fill:#434343; stroke:none;" d="M102.333 73.6667L102.667 74.3333L102.333 73.6667z"/>
<path style="fill:#737373; stroke:none;" d="M38.3333 74.6667L38.6667 75.3333L38.3333 74.6667z"/>
<path style="fill:#969696; stroke:none;" d="M83.3333 74.6667L83.6667 75.3333L83.3333 74.6667z"/>
<path style="fill:#929292; stroke:none;" d="M57.3333 75.6667L57.6667 76.3333L57.3333 75.6667z"/>
<path style="fill:#343434; stroke:none;" d="M101.333 76.6667L101.667 77.3333L101.333 76.6667z"/>
<path style="fill:#9c9c9c; stroke:none;" d="M82.3333 77.6667L82.6667 78.3333L82.3333 77.6667z"/>
<path style="fill:#989898; stroke:none;" d="M58.3333 78.6667L58.6667 79.3333L58.3333 78.6667z"/>
<path style="fill:#7a7a7a; stroke:none;" d="M100.333 78.6667L100.667 79.3333L100.333 78.6667z"/>
<path style="fill:#4e4e4e; stroke:none;" d="M40.3333 80.6667L40.6667 81.3333L40.3333 80.6667z"/>
<path style="fill:#9b9b9b; stroke:none;" d="M81.3333 80.6667L81.6667 81.3333L81.3333 80.6667z"/>
<path style="fill:#a3a3a3; stroke:none;" d="M59.3333 81.6667L59.6667 82.3333L59.3333 81.6667z"/>
<path style="fill:#4c4c4c; stroke:none;" d="M99.3333 81.6667L99.6667 82.3333L99.3333 81.6667z"/>
<path style="fill:#3f3f3f; stroke:none;" d="M41.3333 83.6667L41.6667 84.3333L41.3333 83.6667z"/>
<path style="fill:#a7a7a7; stroke:none;" d="M80.3333 83.6667L80.6667 84.3333L80.3333 83.6667z"/>
<path style="fill:#aaaaaa; stroke:none;" d="M60.3333 84.6667L60.6667 85.3333L60.3333 84.6667z"/>
<path style="fill:#3e3e3e; stroke:none;" d="M98.3333 84.6667L98.6667 85.3333L98.3333 84.6667z"/>
<path style="fill:#acacac; stroke:none;" d="M79.3333 86.6667L79.6667 87.3333L79.3333 86.6667z"/>
<path style="fill:#777777; stroke:none;" d="M97.3333 86.6667L97.6667 87.3333L97.3333 86.6667z"/>
<path style="fill:#aeaeae; stroke:none;" d="M61.3333 87.6667L61.6667 88.3333L61.3333 87.6667z"/>
<path style="fill:#515151; stroke:none;" d="M43.3333 88.6667L43.6667 89.3333L43.3333 88.6667z"/>
<path style="fill:#787878; stroke:none;" d="M78.3333 88.6667L78.6667 89.3333L78.3333 88.6667z"/>
<path style="fill:#aaaaaa; stroke:none;" d="M62.3333 90.6667L62.6667 91.3333L62.3333 90.6667z"/>
<path style="fill:#414141; stroke:none;" d="M44.3333 91.6667L44.6667 92.3333L44.3333 91.6667z"/>
<path style="fill:#484848; stroke:none;" d="M95.3333 92.6667L95.6667 93.3333L95.3333 92.6667z"/>
<path style="fill:#b6b6b6; stroke:none;" d="M63.3333 93.6667L63.6667 94.3333L63.3333 93.6667z"/>
<path style="fill:#3e3e3e; stroke:none;" d="M45.3333 94.6667L45.6667 95.3333L45.3333 94.6667z"/>
<path style="fill:#888888; stroke:none;" d="M76.3333 94.6667L76.6667 95.3333L76.3333 94.6667z"/>
<path style="fill:#878787; stroke:none;" d="M94.3333 94.6667L94.6667 95.3333L94.3333 94.6667z"/>
<path style="fill:#656565; stroke:none;" d="M46.3333 96.6667L46.6667 97.3333L46.3333 96.6667z"/>
<path style="fill:#b0b0b0; stroke:none;" d="M64.3333 96.6667L64.6667 97.3333L64.3333 96.6667z"/>
<path style="fill:#939393; stroke:none;" d="M75.3333 97.6667L75.6667 98.3333L75.3333 97.6667z"/>
<path style="fill:#868686; stroke:none;" d="M65.3333 98.6667L65.6667 99.3333L65.3333 98.6667z"/>
<path style="fill:#4d4d4d; stroke:none;" d="M47.3333 99.6667L47.6667 100.333L47.3333 99.6667z"/>
<path style="fill:#909090; stroke:none;" d="M74.3333 100.667L74.6667 101.333L74.3333 100.667z"/>
<path style="fill:#5b5b5b; stroke:none;" d="M92.3333 100.667L92.6667 101.333L92.3333 100.667z"/>
<path style="fill:#4b4b4b; stroke:none;" d="M48.3333 102.667L48.6667 103.333L48.3333 102.667z"/>
<path style="fill:#8f8f8f; stroke:none;" d="M91.3333 102.667L91.6667 103.333L91.3333 102.667z"/>
<path style="fill:#737373; stroke:none;" d="M49.3333 104.667L49.6667 105.333L49.3333 104.667z"/>
<path style="fill:#959595; stroke:none;" d="M67.3333 104.667L67.6667 105.333L67.3333 104.667z"/>
<path style="fill:#9d9d9d; stroke:none;" d="M72.3333 106.667L72.6667 107.333L72.3333 106.667z"/>
<path style="fill:#9f9f9f; stroke:none;" d="M68.3333 107.667L68.6667 108.333L68.3333 107.667z"/>
<path style="fill:#6e6e6e; stroke:none;" d="M89.3333 108.667L89.6667 109.333L89.3333 108.667z"/>
<path style="fill:#a7a7a7; stroke:none;" d="M71.3333 109.667L71.6667 110.333L71.3333 109.667z"/>
<path style="fill:#565656; stroke:none;" d="M51.3333 110.667L51.6667 111.333L51.3333 110.667z"/>
<path style="fill:#a5a5a5; stroke:none;" d="M69.3333 110.667L69.6667 111.333L69.3333 110.667z"/>
<path style="fill:#3a3a3a; stroke:none;" d="M52.3333 113.667L52.6667 114.333L52.3333 113.667z"/>
<path style="fill:#444444; stroke:none;" d="M87.3333 114.667L87.6667 115.333L87.3333 114.667z"/>
<path style="fill:#666666; stroke:none;" d="M53.3333 115.667L53.6667 116.333L53.3333 115.667z"/>
<path style="fill:#737373; stroke:none;" d="M86.3333 116.667L86.6667 117.333L86.3333 116.667z"/>
<path style="fill:#6a6a6a; stroke:none;" d="M54.3333 118.667L54.6667 119.333L54.3333 118.667z"/>
<path style="fill:#424242; stroke:none;" d="M55.3333 121.667L55.6667 122.333L55.3333 121.667z"/>
<path style="fill:#4c4c4c; stroke:none;" d="M84.3333 122.667L84.6667 123.333L84.3333 122.667z"/>
<path style="fill:#3c3c3c; stroke:none;" d="M83.3333 125.667L83.6667 126.333L83.3333 125.667z"/>
<path style="fill:#666666; stroke:none;" d="M57.3333 126.667L57.6667 127.333L57.3333 126.667z"/>
<path style="fill:#717171; stroke:none;" d="M82.3333 127.667L82.6667 128.333L82.3333 127.667z"/>
<path style="fill:#4d4d4d; stroke:none;" d="M58.3333 129.667L58.6667 130.333L58.3333 129.667z"/>
<path style="fill:#6d6d6d; stroke:none;" d="M81.3333 130.667L81.6667 131.333L81.3333 130.667z"/>
<path style="fill:#00314b; stroke:none;" d="M127 137L127 153L128 153L127 137z"/>
<path style="fill:#2e9ac1; stroke:none;" d="M128 139L165 138L201 139L186 137L144 137L128 139z"/>
<path style="fill:#004c67; stroke:none;" d="M201 137L201 154L202 154L201 137z"/>
<path style="fill:#03aaf1; stroke:none;" d="M128 153L201 153L199.397 139.028L184 138L144 138L129.603 139.028L128 153z"/>
<path style="fill:#08729c; stroke:none;" d="M128 153L128 154L201 154L178 153L128 153z"/>
</svg>
